solid all in one ender 3 case - left lid.stl
  facet normal 0 1 0
    outer loop
      vertex 70.5 155 1
      vertex 70.5 155 0
      vertex 65.5 155 1
    endloop
  endfacet
  facet normal 0 1 0
    outer loop
      vertex 70.5 155 0
      vertex 65.5 155 0
      vertex 65.5 155 1
    endloop
  endfacet
  facet normal 1 0 0
    outer loop
      vertex 65.5 155 1
      vertex 65.5 155 0
      vertex 65.5 170 1
    endloop
  endfacet
  facet normal 1 0 0
    outer loop
      vertex 65.5 155 0
      vertex 65.5 170 0
      vertex 65.5 170 1
    endloop
  endfacet
  facet normal -1 0 0
    outer loop
      vertex 70.5 170 1
      vertex 70.5 170 0
      vertex 70.5 155 1
    endloop
  endfacet
  facet normal -1 0 0
    outer loop
      vertex 70.5 170 0
      vertex 70.5 155 0
      vertex 70.5 155 1
    endloop
  endfacet
  facet normal 0.998603 0.0528444 0
    outer loop
      vertex 67.75 43.5 0
      vertex 67.75 43.5 1
      vertex 67.76 43.311 0
    endloop
  endfacet
  facet normal 0.998603 0.0528444 0
    outer loop
      vertex 67.75 43.5 1
      vertex 67.76 43.311 1
      vertex 67.76 43.311 0
    endloop
  endfacet
  facet normal 0.986537 0.163537 0
    outer loop
      vertex 67.76 43.311 0
      vertex 67.76 43.311 1
      vertex 67.791 43.124 0
    endloop
  endfacet
  facet normal 0.986537 0.163537 0
    outer loop
      vertex 67.76 43.311 1
      vertex 67.791 43.124 1
      vertex 67.791 43.124 0
    endloop
  endfacet
  facet normal 0.963287 0.268472 0
    outer loop
      vertex 67.791 43.124 0
      vertex 67.791 43.124 1
      vertex 67.842 42.941 0
    endloop
  endfacet
  facet normal 0.963287 0.268472 0
    outer loop
      vertex 67.791 43.124 1
      vertex 67.842 42.941 1
      vertex 67.842 42.941 0
    endloop
  endfacet
  facet normal 0.9292 0.369577 0
    outer loop
      vertex 67.842 42.941 0
      vertex 67.842 42.941 1
      vertex 67.912 42.765 0
    endloop
  endfacet
  facet normal 0.9292 0.369577 0
    outer loop
      vertex 67.842 42.941 1
      vertex 67.912 42.765 1
      vertex 67.912 42.765 0
    endloop
  endfacet
  facet normal 0.884702 0.466156 0
    outer loop
      vertex 67.912 42.765 0
      vertex 67.912 42.765 1
      vertex 68 42.598 0
    endloop
  endfacet
  facet normal 0.884702 0.466156 0
    outer loop
      vertex 67.912 42.765 1
      vertex 68 42.598 1
      vertex 68 42.598 0
    endloop
  endfacet
  facet normal 0.826329 0.563187 0
    outer loop
      vertex 68 42.598 0
      vertex 68 42.598 1
      vertex 68.107 42.441 0
    endloop
  endfacet
  facet normal 0.826329 0.563187 0
    outer loop
      vertex 68 42.598 1
      vertex 68.107 42.441 1
      vertex 68.107 42.441 0
    endloop
  endfacet
  facet normal 0.76521 0.643781 0
    outer loop
      vertex 68.107 42.441 0
      vertex 68.107 42.441 1
      vertex 68.229 42.296 0
    endloop
  endfacet
  facet normal 0.76521 0.643781 0
    outer loop
      vertex 68.107 42.441 1
      vertex 68.229 42.296 1
      vertex 68.229 42.296 0
    endloop
  endfacet
  facet normal 0.685663 0.727919 0
    outer loop
      vertex 68.229 42.296 0
      vertex 68.229 42.296 1
      vertex 68.367 42.166 0
    endloop
  endfacet
  facet normal 0.685663 0.727919 0
    outer loop
      vertex 68.229 42.296 1
      vertex 68.367 42.166 1
      vertex 68.367 42.166 0
    endloop
  endfacet
  facet normal 0.602578 0.79806 0
    outer loop
      vertex 68.367 42.166 0
      vertex 68.367 42.166 1
      vertex 68.518 42.052 0
    endloop
  endfacet
  facet normal 0.602578 0.79806 0
    outer loop
      vertex 68.367 42.166 1
      vertex 68.518 42.052 1
      vertex 68.518 42.052 0
    endloop
  endfacet
  facet normal 0.517562 0.855646 0
    outer loop
      vertex 68.518 42.052 0
      vertex 68.518 42.052 1
      vertex 68.68 41.954 0
    endloop
  endfacet
  facet normal 0.517562 0.855646 0
    outer loop
      vertex 68.518 42.052 1
      vertex 68.68 41.954 1
      vertex 68.68 41.954 0
    endloop
  endfacet
  facet normal 0.421745 0.906715 0
    outer loop
      vertex 68.68 41.954 0
      vertex 68.68 41.954 1
      vertex 68.852 41.874 0
    endloop
  endfacet
  facet normal 0.421745 0.906715 0
    outer loop
      vertex 68.68 41.954 1
      vertex 68.852 41.874 1
      vertex 68.852 41.874 0
    endloop
  endfacet
  facet normal 0.316216 0.948687 0
    outer loop
      vertex 68.852 41.874 0
      vertex 68.852 41.874 1
      vertex 69.032 41.814 0
    endloop
  endfacet
  facet normal 0.316216 0.948687 0
    outer loop
      vertex 68.852 41.874 1
      vertex 69.032 41.814 1
      vertex 69.032 41.814 0
    endloop
  endfacet
  facet normal 0.216368 0.976312 0
    outer loop
      vertex 69.032 41.814 0
      vertex 69.032 41.814 1
      vertex 69.217 41.773 0
    endloop
  endfacet
  facet normal 0.216368 0.976312 0
    outer loop
      vertex 69.032 41.814 1
      vertex 69.217 41.773 1
      vertex 69.217 41.773 0
    endloop
  endfacet
  facet normal 0.105811 0.994386 0
    outer loop
      vertex 69.217 41.773 0
      vertex 69.217 41.773 1
      vertex 69.405 41.753 0
    endloop
  endfacet
  facet normal 0.105811 0.994386 0
    outer loop
      vertex 69.217 41.773 1
      vertex 69.405 41.753 1
      vertex 69.405 41.753 0
    endloop
  endfacet
  facet normal 0 1 0
    outer loop
      vertex 69.405 41.753 0
      vertex 69.405 41.753 1
      vertex 69.595 41.753 0
    endloop
  endfacet
  facet normal 0 1 0
    outer loop
      vertex 69.405 41.753 1
      vertex 69.595 41.753 1
      vertex 69.595 41.753 0
    endloop
  endfacet
  facet normal -0.105811 0.994386 0
    outer loop
      vertex 69.595 41.753 0
      vertex 69.595 41.753 1
      vertex 69.783 41.773 0
    endloop
  endfacet
  facet normal -0.105811 0.994386 0
    outer loop
      vertex 69.595 41.753 1
      vertex 69.783 41.773 1
      vertex 69.783 41.773 0
    endloop
  endfacet
  facet normal -0.216368 0.976312 0
    outer loop
      vertex 69.783 41.773 0
      vertex 69.783 41.773 1
      vertex 69.968 41.814 0
    endloop
  endfacet
  facet normal -0.216368 0.976312 0
    outer loop
      vertex 69.783 41.773 1
      vertex 69.968 41.814 1
      vertex 69.968 41.814 0
    endloop
  endfacet
  facet normal -0.316216 0.948687 0
    outer loop
      vertex 69.968 41.814 0
      vertex 69.968 41.814 1
      vertex 70.148 41.874 0
    endloop
  endfacet
  facet normal -0.316216 0.948687 0
    outer loop
      vertex 69.968 41.814 1
      vertex 70.148 41.874 1
      vertex 70.148 41.874 0
    endloop
  endfacet
  facet normal -0.421745 0.906715 0
    outer loop
      vertex 70.148 41.874 0
      vertex 70.148 41.874 1
      vertex 70.32 41.954 0
    endloop
  endfacet
  facet normal -0.421745 0.906715 0
    outer loop
      vertex 70.148 41.874 1
      vertex 70.32 41.954 1
      vertex 70.32 41.954 0
    endloop
  endfacet
  facet normal -0.517562 0.855646 0
    outer loop
      vertex 70.32 41.954 0
      vertex 70.32 41.954 1
      vertex 70.482 42.052 0
    endloop
  endfacet
  facet normal -0.517562 0.855646 0
    outer loop
      vertex 70.32 41.954 1
      vertex 70.482 42.052 1
      vertex 70.482 42.052 0
    endloop
  endfacet
  facet normal -0.602597 0.798046 0
    outer loop
      vertex 70.482 42.052 0
      vertex 70.482 42.052 1
      vertex 70.633 42.166 0
    endloop
  endfacet
  facet normal -0.602597 0.798046 0
    outer loop
      vertex 70.482 42.052 1
      vertex 70.633 42.166 1
      vertex 70.633 42.166 0
    endloop
  endfacet
  facet normal -0.6883 0.725426 0
    outer loop
      vertex 70.633 42.166 0
      vertex 70.633 42.166 1
      vertex 70.77 42.296 0
    endloop
  endfacet
  facet normal -0.6883 0.725426 0
    outer loop
      vertex 70.633 42.166 1
      vertex 70.77 42.296 1
      vertex 70.77 42.296 0
    endloop
  endfacet
  facet normal -0.762594 0.646877 0
    outer loop
      vertex 70.77 42.296 0
      vertex 70.77 42.296 1
      vertex 70.893 42.441 0
    endloop
  endfacet
  facet normal -0.762594 0.646877 0
    outer loop
      vertex 70.77 42.296 1
      vertex 70.893 42.441 1
      vertex 70.893 42.441 0
    endloop
  endfacet
  facet normal -0.828777 0.559579 0
    outer loop
      vertex 70.893 42.441 0
      vertex 70.893 42.441 1
      vertex 70.999 42.598 0
    endloop
  endfacet
  facet normal -0.828777 0.559579 0
    outer loop
      vertex 70.893 42.441 1
      vertex 70.999 42.598 1
      vertex 70.999 42.598 0
    endloop
  endfacet
  facet normal -0.882515 0.470285 0
    outer loop
      vertex 70.999 42.598 0
      vertex 70.999 42.598 1
      vertex 71.088 42.765 0
    endloop
  endfacet
  facet normal -0.882515 0.470285 0
    outer loop
      vertex 70.999 42.598 1
      vertex 71.088 42.765 1
      vertex 71.088 42.765 0
    endloop
  endfacet
  facet normal -0.9292 0.369577 0
    outer loop
      vertex 71.088 42.765 0
      vertex 71.088 42.765 1
      vertex 71.158 42.941 0
    endloop
  endfacet
  facet normal -0.9292 0.369577 0
    outer loop
      vertex 71.088 42.765 1
      vertex 71.158 42.941 1
      vertex 71.158 42.941 0
    endloop
  endfacet
  facet normal -0.963287 0.268472 0
    outer loop
      vertex 71.158 42.941 0
      vertex 71.158 42.941 1
      vertex 71.209 43.124 0
    endloop
  endfacet
  facet normal -0.963287 0.268472 0
    outer loop
      vertex 71.158 42.941 1
      vertex 71.209 43.124 1
      vertex 71.209 43.124 0
    endloop
  endfacet
  facet normal -0.986537 0.163537 0
    outer loop
      vertex 71.209 43.124 0
      vertex 71.209 43.124 1
      vertex 71.24 43.311 0
    endloop
  endfacet
  facet normal -0.986537 0.163537 0
    outer loop
      vertex 71.209 43.124 1
      vertex 71.24 43.311 1
      vertex 71.24 43.311 0
    endloop
  endfacet
  facet normal -0.998603 0.0528444 0
    outer loop
      vertex 71.24 43.311 0
      vertex 71.24 43.311 1
      vertex 71.25 43.5 0
    endloop
  endfacet
  facet normal -0.998603 0.0528444 0
    outer loop
      vertex 71.24 43.311 1
      vertex 71.25 43.5 1
      vertex 71.25 43.5 0
    endloop
  endfacet
  facet normal -0.998603 -0.0528487 0
    outer loop
      vertex 71.25 43.5 0
      vertex 71.25 43.5 1
      vertex 71.24 43.689 0
    endloop
  endfacet
  facet normal -0.998603 -0.0528487 0
    outer loop
      vertex 71.25 43.5 1
      vertex 71.24 43.689 1
      vertex 71.24 43.689 0
    endloop
  endfacet
  facet normal -0.986537 -0.163537 0
    outer loop
      vertex 71.24 43.689 0
      vertex 71.24 43.689 1
      vertex 71.209 43.876 0
    endloop
  endfacet
  facet normal -0.986537 -0.163537 0
    outer loop
      vertex 71.24 43.689 1
      vertex 71.209 43.876 1
      vertex 71.209 43.876 0
    endloop
  endfacet
  facet normal -0.963287 -0.268472 0
    outer loop
      vertex 71.209 43.876 0
      vertex 71.209 43.876 1
      vertex 71.158 44.059 0
    endloop
  endfacet
  facet normal -0.963287 -0.268472 0
    outer loop
      vertex 71.209 43.876 1
      vertex 71.158 44.059 1
      vertex 71.158 44.059 0
    endloop
  endfacet
  facet normal -0.929211 -0.36955 0
    outer loop
      vertex 71.158 44.059 0
      vertex 71.158 44.059 1
      vertex 71.088 44.235 0
    endloop
  endfacet
  facet normal -0.929211 -0.36955 0
    outer loop
      vertex 71.158 44.059 1
      vertex 71.088 44.235 1
      vertex 71.088 44.235 0
    endloop
  endfacet
  facet normal -0.882497 -0.470318 0
    outer loop
      vertex 71.088 44.235 0
      vertex 71.088 44.235 1
      vertex 70.999 44.402 0
    endloop
  endfacet
  facet normal -0.882497 -0.470318 0
    outer loop
      vertex 71.088 44.235 1
      vertex 70.999 44.402 1
      vertex 70.999 44.402 0
    endloop
  endfacet
  facet normal -0.828777 -0.559579 0
    outer loop
      vertex 70.999 44.402 0
      vertex 70.999 44.402 1
      vertex 70.893 44.559 0
    endloop
  endfacet
  facet normal -0.828777 -0.559579 0
    outer loop
      vertex 70.999 44.402 1
      vertex 70.893 44.559 1
      vertex 70.893 44.559 0
    endloop
  endfacet
  facet normal -0.760365 -0.649497 0
    outer loop
      vertex 70.893 44.559 0
      vertex 70.893 44.559 1
      vertex 70.77 44.703 0
    endloop
  endfacet
  facet normal -0.760365 -0.649497 0
    outer loop
      vertex 70.893 44.559 1
      vertex 70.77 44.703 1
      vertex 70.77 44.703 0
    endloop
  endfacet
  facet normal -0.691133 -0.722728 0
    outer loop
      vertex 70.77 44.703 0
      vertex 70.77 44.703 1
      vertex 70.633 44.834 0
    endloop
  endfacet
  facet normal -0.691133 -0.722728 0
    outer loop
      vertex 70.77 44.703 1
      vertex 70.633 44.834 1
      vertex 70.633 44.834 0
    endloop
  endfacet
  facet normal -0.602546 -0.798084 0
    outer loop
      vertex 70.633 44.834 0
      vertex 70.633 44.834 1
      vertex 70.482 44.948 0
    endloop
  endfacet
  facet normal -0.602546 -0.798084 0
    outer loop
      vertex 70.633 44.834 1
      vertex 70.482 44.948 1
      vertex 70.482 44.948 0
    endloop
  endfacet
  facet normal -0.517562 -0.855646 0
    outer loop
      vertex 70.482 44.948 0
      vertex 70.482 44.948 1
      vertex 70.32 45.046 0
    endloop
  endfacet
  facet normal -0.517562 -0.855646 0
    outer loop
      vertex 70.482 44.948 1
      vertex 70.32 45.046 1
      vertex 70.32 45.046 0
    endloop
  endfacet
  facet normal -0.421745 -0.906715 0
    outer loop
      vertex 70.32 45.046 0
      vertex 70.32 45.046 1
      vertex 70.148 45.126 0
    endloop
  endfacet
  facet normal -0.421745 -0.906715 0
    outer loop
      vertex 70.32 45.046 1
      vertex 70.148 45.126 1
      vertex 70.148 45.126 0
    endloop
  endfacet
  facet normal -0.316216 -0.948687 0
    outer loop
      vertex 70.148 45.126 0
      vertex 70.148 45.126 1
      vertex 69.968 45.186 0
    endloop
  endfacet
  facet normal -0.316216 -0.948687 0
    outer loop
      vertex 70.148 45.126 1
      vertex 69.968 45.186 1
      vertex 69.968 45.186 0
    endloop
  endfacet
  facet normal -0.216368 -0.976312 0
    outer loop
      vertex 69.968 45.186 0
      vertex 69.968 45.186 1
      vertex 69.783 45.227 0
    endloop
  endfacet
  facet normal -0.216368 -0.976312 0
    outer loop
      vertex 69.968 45.186 1
      vertex 69.783 45.227 1
      vertex 69.783 45.227 0
    endloop
  endfacet
  facet normal -0.105811 -0.994386 0
    outer loop
      vertex 69.783 45.227 0
      vertex 69.783 45.227 1
      vertex 69.595 45.247 0
    endloop
  endfacet
  facet normal -0.105811 -0.994386 0
    outer loop
      vertex 69.783 45.227 1
      vertex 69.595 45.247 1
      vertex 69.595 45.247 0
    endloop
  endfacet
  facet normal 0 -1 0
    outer loop
      vertex 69.595 45.247 0
      vertex 69.595 45.247 1
      vertex 69.405 45.247 0
    endloop
  endfacet
  facet normal 0 -1 0
    outer loop
      vertex 69.595 45.247 1
      vertex 69.405 45.247 1
      vertex 69.405 45.247 0
    endloop
  endfacet
  facet normal 0.105811 -0.994386 0
    outer loop
      vertex 69.405 45.247 0
      vertex 69.405 45.247 1
      vertex 69.217 45.227 0
    endloop
  endfacet
  facet normal 0.105811 -0.994386 0
    outer loop
      vertex 69.405 45.247 1
      vertex 69.217 45.227 1
      vertex 69.217 45.227 0
    endloop
  endfacet
  facet normal 0.216368 -0.976312 0
    outer loop
      vertex 69.217 45.227 0
      vertex 69.217 45.227 1
      vertex 69.032 45.186 0
    endloop
  endfacet
  facet normal 0.216368 -0.976312 0
    outer loop
      vertex 69.217 45.227 1
      vertex 69.032 45.186 1
      vertex 69.032 45.186 0
    endloop
  endfacet
  facet normal 0.316216 -0.948687 0
    outer loop
      vertex 69.032 45.186 0
      vertex 69.032 45.186 1
      vertex 68.852 45.126 0
    endloop
  endfacet
  facet normal 0.316216 -0.948687 0
    outer loop
      vertex 69.032 45.186 1
      vertex 68.852 45.126 1
      vertex 68.852 45.126 0
    endloop
  endfacet
  facet normal 0.421745 -0.906715 0
    outer loop
      vertex 68.852 45.126 0
      vertex 68.852 45.126 1
      vertex 68.68 45.046 0
    endloop
  endfacet
  facet normal 0.421745 -0.906715 0
    outer loop
      vertex 68.852 45.126 1
      vertex 68.68 45.046 1
      vertex 68.68 45.046 0
    endloop
  endfacet
  facet normal 0.517562 -0.855646 0
    outer loop
      vertex 68.68 45.046 0
      vertex 68.68 45.046 1
      vertex 68.518 44.948 0
    endloop
  endfacet
  facet normal 0.517562 -0.855646 0
    outer loop
      vertex 68.68 45.046 1
      vertex 68.518 44.948 1
      vertex 68.518 44.948 0
    endloop
  endfacet
  facet normal 0.602526 -0.798099 0
    outer loop
      vertex 68.518 44.948 0
      vertex 68.518 44.948 1
      vertex 68.367 44.834 0
    endloop
  endfacet
  facet normal 0.602526 -0.798099 0
    outer loop
      vertex 68.518 44.948 1
      vertex 68.367 44.834 1
      vertex 68.367 44.834 0
    endloop
  endfacet
  facet normal 0.688505 -0.725232 0
    outer loop
      vertex 68.367 44.834 0
      vertex 68.367 44.834 1
      vertex 68.229 44.703 0
    endloop
  endfacet
  facet normal 0.688505 -0.725232 0
    outer loop
      vertex 68.367 44.834 1
      vertex 68.229 44.703 1
      vertex 68.229 44.703 0
    endloop
  endfacet
  facet normal 0.762994 -0.646406 0
    outer loop
      vertex 68.229 44.703 0
      vertex 68.229 44.703 1
      vertex 68.107 44.559 0
    endloop
  endfacet
  facet normal 0.762994 -0.646406 0
    outer loop
      vertex 68.229 44.703 1
      vertex 68.107 44.559 1
      vertex 68.107 44.559 0
    endloop
  endfacet
  facet normal 0.826329 -0.563187 0
    outer loop
      vertex 68.107 44.559 0
      vertex 68.107 44.559 1
      vertex 68 44.402 0
    endloop
  endfacet
  facet normal 0.826329 -0.563187 0
    outer loop
      vertex 68.107 44.559 1
      vertex 68 44.402 1
      vertex 68 44.402 0
    endloop
  endfacet
  facet normal 0.884685 -0.46619 0
    outer loop
      vertex 68 44.402 0
      vertex 68 44.402 1
      vertex 67.912 44.235 0
    endloop
  endfacet
  facet normal 0.884685 -0.46619 0
    outer loop
      vertex 68 44.402 1
      vertex 67.912 44.235 1
      vertex 67.912 44.235 0
    endloop
  endfacet
  facet normal 0.929211 -0.36955 0
    outer loop
      vertex 67.912 44.235 0
      vertex 67.912 44.235 1
      vertex 67.842 44.059 0
    endloop
  endfacet
  facet normal 0.929211 -0.36955 0
    outer loop
      vertex 67.912 44.235 1
      vertex 67.842 44.059 1
      vertex 67.842 44.059 0
    endloop
  endfacet
  facet normal 0.963287 -0.268472 0
    outer loop
      vertex 67.842 44.059 0
      vertex 67.842 44.059 1
      vertex 67.791 43.876 0
    endloop
  endfacet
  facet normal 0.963287 -0.268472 0
    outer loop
      vertex 67.842 44.059 1
      vertex 67.791 43.876 1
      vertex 67.791 43.876 0
    endloop
  endfacet
  facet normal 0.986537 -0.163537 0
    outer loop
      vertex 67.791 43.876 0
      vertex 67.791 43.876 1
      vertex 67.76 43.689 0
    endloop
  endfacet
  facet normal 0.986537 -0.163537 0
    outer loop
      vertex 67.791 43.876 1
      vertex 67.76 43.689 1
      vertex 67.76 43.689 0
    endloop
  endfacet
  facet normal 0.998603 -0.0528487 0
    outer loop
      vertex 67.76 43.689 0
      vertex 67.76 43.689 1
      vertex 67.75 43.5 0
    endloop
  endfacet
  facet normal 0.998603 -0.0528487 0
    outer loop
      vertex 67.76 43.689 1
      vertex 67.75 43.5 1
      vertex 67.75 43.5 0
    endloop
  endfacet
  facet normal 0 0.196116 0.980581
    outer loop
      vertex 63.5 160 3
      vertex 63.5 170 1
      vertex 61.5 160 3
    endloop
  endfacet
  facet normal 0 0.196116 0.980581
    outer loop
      vertex 63.5 170 1
      vertex 59.5 170 1
      vertex 61.5 160 3
    endloop
  endfacet
  facet normal 0 0 1
    outer loop
      vertex 63.5 40 3
      vertex 63.5 160 3
      vertex 61.5 40 3
    endloop
  endfacet
  facet normal 0 0 1
    outer loop
      vertex 63.5 160 3
      vertex 61.5 160 3
      vertex 61.5 40 3
    endloop
  endfacet
  facet normal -0.707107 0 0.707107
    outer loop
      vertex 59.5 170 1
      vertex 59.5 40 1
      vertex 61.5 160 3
    endloop
  endfacet
  facet normal -0.707107 0 0.707107
    outer loop
      vertex 59.5 40 1
      vertex 61.5 40 3
      vertex 61.5 160 3
    endloop
  endfacet
  facet normal 1 0 0
    outer loop
      vertex 63.5 40 3
      vertex 63.5 40 1
      vertex 63.5 160 3
    endloop
  endfacet
  facet normal 1 0 0
    outer loop
      vertex 63.5 40 1
      vertex 63.5 170 1
      vertex 63.5 160 3
    endloop
  endfacet
  facet normal 0 -1 0
    outer loop
      vertex 190.5 40 0
      vertex 190.5 40 1
      vertex 63.5 40 1
    endloop
  endfacet
  facet normal 0 -1 0
    outer loop
      vertex 63.5 40 1
      vertex 63.5 40 3
      vertex 61.5 40 3
    endloop
  endfacet
  facet normal 0 -1 0
    outer loop
      vertex 190.5 40 0
      vertex 63.5 40 1
      vertex 59.5 40 0
    endloop
  endfacet
  facet normal 0 -1 0
    outer loop
      vertex 63.5 40 1
      vertex 61.5 40 3
      vertex 59.5 40 0
    endloop
  endfacet
  facet normal 0 -1 0
    outer loop
      vertex 59.5 40 0
      vertex 61.5 40 3
      vertex 59.5 40 1
    endloop
  endfacet
  facet normal 0 0 -1
    outer loop
      vertex 70.5 170 0
      vertex 190.5 170 0
      vertex 70.5 155 0
    endloop
  endfacet
  facet normal 0 0 -1
    outer loop
      vertex 190.5 170 0
      vertex 190.5 40 0
      vertex 70.5 155 0
    endloop
  endfacet
  facet normal 0 0 -1
    outer loop
      vertex 59.5 170 0
      vertex 65.5 170 0
      vertex 65.5 155 0
    endloop
  endfacet
  facet normal 0 0 -1
    outer loop
      vertex 71.088 44.235 0
      vertex 70.999 44.402 0
      vertex 59.5 170 0
    endloop
  endfacet
  facet normal 0 0 -1
    outer loop
      vertex 70.999 44.402 0
      vertex 70.893 44.559 0
      vertex 59.5 170 0
    endloop
  endfacet
  facet normal 0 0 -1
    outer loop
      vertex 70.893 44.559 0
      vertex 70.77 44.703 0
      vertex 59.5 170 0
    endloop
  endfacet
  facet normal 0 0 -1
    outer loop
      vertex 59.5 170 0
      vertex 70.77 44.703 0
      vertex 70.633 44.834 0
    endloop
  endfacet
  facet normal 0 0 -1
    outer loop
      vertex 67.791 43.876 0
      vertex 67.76 43.689 0
      vertex 59.5 40 0
    endloop
  endfacet
  facet normal 0 0 -1
    outer loop
      vertex 68 42.598 0
      vertex 68.107 42.441 0
      vertex 59.5 40 0
    endloop
  endfacet
  facet normal 0 0 -1
    outer loop
      vertex 68.107 42.441 0
      vertex 68.229 42.296 0
      vertex 59.5 40 0
    endloop
  endfacet
  facet normal 0 0 -1
    outer loop
      vertex 68.229 42.296 0
      vertex 68.367 42.166 0
      vertex 59.5 40 0
    endloop
  endfacet
  facet normal 0 0 -1
    outer loop
      vertex 68.367 42.166 0
      vertex 68.518 42.052 0
      vertex 59.5 40 0
    endloop
  endfacet
  facet normal 0 0 -1
    outer loop
      vertex 59.5 40 0
      vertex 68.518 42.052 0
      vertex 68.68 41.954 0
    endloop
  endfacet
  facet normal 0 0 -1
    outer loop
      vertex 70.633 44.834 0
      vertex 70.482 44.948 0
      vertex 59.5 170 0
    endloop
  endfacet
  facet normal 0 0 -1
    outer loop
      vertex 70.482 44.948 0
      vertex 70.32 45.046 0
      vertex 59.5 170 0
    endloop
  endfacet
  facet normal 0 0 -1
    outer loop
      vertex 59.5 170 0
      vertex 70.32 45.046 0
      vertex 70.148 45.126 0
    endloop
  endfacet
  facet normal 0 0 -1
    outer loop
      vertex 70.482 42.052 0
      vertex 70.633 42.166 0
      vertex 190.5 40 0
    endloop
  endfacet
  facet normal 0 0 -1
    outer loop
      vertex 69.032 45.186 0
      vertex 68.852 45.126 0
      vertex 59.5 170 0
    endloop
  endfacet
  facet normal 0 0 -1
    outer loop
      vertex 68.852 45.126 0
      vertex 68.68 45.046 0
      vertex 59.5 170 0
    endloop
  endfacet
  facet normal 0 0 -1
    outer loop
      vertex 59.5 170 0
      vertex 68.68 45.046 0
      vertex 68.518 44.948 0
    endloop
  endfacet
  facet normal 0 0 -1
    outer loop
      vertex 68.518 44.948 0
      vertex 68.367 44.834 0
      vertex 59.5 170 0
    endloop
  endfacet
  facet normal 0 0 -1
    outer loop
      vertex 68.367 44.834 0
      vertex 68.229 44.703 0
      vertex 59.5 170 0
    endloop
  endfacet
  facet normal 0 0 -1
    outer loop
      vertex 59.5 170 0
      vertex 68.229 44.703 0
      vertex 59.5 40 0
    endloop
  endfacet
  facet normal 0 0 -1
    outer loop
      vertex 68.229 44.703 0
      vertex 68.107 44.559 0
      vertex 59.5 40 0
    endloop
  endfacet
  facet normal 0 0 -1
    outer loop
      vertex 59.5 40 0
      vertex 68.107 44.559 0
      vertex 68 44.402 0
    endloop
  endfacet
  facet normal 0 0 -1
    outer loop
      vertex 67.76 43.689 0
      vertex 67.75 43.5 0
      vertex 59.5 40 0
    endloop
  endfacet
  facet normal 0 0 -1
    outer loop
      vertex 67.75 43.5 0
      vertex 67.76 43.311 0
      vertex 59.5 40 0
    endloop
  endfacet
  facet normal 0 0 -1
    outer loop
      vertex 59.5 40 0
      vertex 67.76 43.311 0
      vertex 67.791 43.124 0
    endloop
  endfacet
  facet normal 0 0 -1
    outer loop
      vertex 68.68 41.954 0
      vertex 68.852 41.874 0
      vertex 59.5 40 0
    endloop
  endfacet
  facet normal 0 0 -1
    outer loop
      vertex 68.852 41.874 0
      vertex 69.032 41.814 0
      vertex 59.5 40 0
    endloop
  endfacet
  facet normal 0 0 -1
    outer loop
      vertex 59.5 40 0
      vertex 69.032 41.814 0
      vertex 69.217 41.773 0
    endloop
  endfacet
  facet normal 0 0 -1
    outer loop
      vertex 70.633 42.166 0
      vertex 70.77 42.296 0
      vertex 190.5 40 0
    endloop
  endfacet
  facet normal 0 0 -1
    outer loop
      vertex 70.77 42.296 0
      vertex 70.893 42.441 0
      vertex 190.5 40 0
    endloop
  endfacet
  facet normal 0 0 -1
    outer loop
      vertex 190.5 40 0
      vertex 70.893 42.441 0
      vertex 70.999 42.598 0
    endloop
  endfacet
  facet normal 0 0 -1
    outer loop
      vertex 70.999 42.598 0
      vertex 71.088 42.765 0
      vertex 190.5 40 0
    endloop
  endfacet
  facet normal 0 0 -1
    outer loop
      vertex 71.088 42.765 0
      vertex 71.158 42.941 0
      vertex 190.5 40 0
    endloop
  endfacet
  facet normal 0 0 -1
    outer loop
      vertex 190.5 40 0
      vertex 71.158 42.941 0
      vertex 71.209 43.124 0
    endloop
  endfacet
  facet normal 0 0 -1
    outer loop
      vertex 68 44.402 0
      vertex 67.912 44.235 0
      vertex 59.5 40 0
    endloop
  endfacet
  facet normal 0 0 -1
    outer loop
      vertex 67.912 44.235 0
      vertex 67.842 44.059 0
      vertex 59.5 40 0
    endloop
  endfacet
  facet normal 0 0 -1
    outer loop
      vertex 59.5 40 0
      vertex 67.842 44.059 0
      vertex 67.791 43.876 0
    endloop
  endfacet
  facet normal 0 0 -1
    outer loop
      vertex 67.791 43.124 0
      vertex 67.842 42.941 0
      vertex 59.5 40 0
    endloop
  endfacet
  facet normal 0 0 -1
    outer loop
      vertex 67.842 42.941 0
      vertex 67.912 42.765 0
      vertex 59.5 40 0
    endloop
  endfacet
  facet normal 0 0 -1
    outer loop
      vertex 59.5 40 0
      vertex 67.912 42.765 0
      vertex 68 42.598 0
    endloop
  endfacet
  facet normal 0 0 -1
    outer loop
      vertex 69.968 41.814 0
      vertex 70.148 41.874 0
      vertex 190.5 40 0
    endloop
  endfacet
  facet normal 0 0 -1
    outer loop
      vertex 70.148 41.874 0
      vertex 70.32 41.954 0
      vertex 190.5 40 0
    endloop
  endfacet
  facet normal 0 0 -1
    outer loop
      vertex 190.5 40 0
      vertex 70.32 41.954 0
      vertex 70.482 42.052 0
    endloop
  endfacet
  facet normal 0 0 -1
    outer loop
      vertex 71.209 43.124 0
      vertex 71.24 43.311 0
      vertex 190.5 40 0
    endloop
  endfacet
  facet normal 0 0 -1
    outer loop
      vertex 71.24 43.311 0
      vertex 71.25 43.5 0
      vertex 190.5 40 0
    endloop
  endfacet
  facet normal 0 0 -1
    outer loop
      vertex 190.5 40 0
      vertex 71.25 43.5 0
      vertex 70.5 155 0
    endloop
  endfacet
  facet normal 0 0 -1
    outer loop
      vertex 71.25 43.5 0
      vertex 71.24 43.689 0
      vertex 70.5 155 0
    endloop
  endfacet
  facet normal 0 0 -1
    outer loop
      vertex 70.5 155 0
      vertex 71.24 43.689 0
      vertex 65.5 155 0
    endloop
  endfacet
  facet normal 0 0 -1
    outer loop
      vertex 71.24 43.689 0
      vertex 71.209 43.876 0
      vertex 65.5 155 0
    endloop
  endfacet
  facet normal 0 0 -1
    outer loop
      vertex 65.5 155 0
      vertex 71.209 43.876 0
      vertex 59.5 170 0
    endloop
  endfacet
  facet normal 0 0 -1
    outer loop
      vertex 71.209 43.876 0
      vertex 71.158 44.059 0
      vertex 59.5 170 0
    endloop
  endfacet
  facet normal 0 0 -1
    outer loop
      vertex 59.5 170 0
      vertex 71.158 44.059 0
      vertex 71.088 44.235 0
    endloop
  endfacet
  facet normal 0 0 -1
    outer loop
      vertex 70.148 45.126 0
      vertex 69.968 45.186 0
      vertex 59.5 170 0
    endloop
  endfacet
  facet normal 0 0 -1
    outer loop
      vertex 69.968 45.186 0
      vertex 69.783 45.227 0
      vertex 59.5 170 0
    endloop
  endfacet
  facet normal 0 0 -1
    outer loop
      vertex 59.5 170 0
      vertex 69.783 45.227 0
      vertex 69.595 45.247 0
    endloop
  endfacet
  facet normal 0 0 -1
    outer loop
      vertex 69.217 41.773 0
      vertex 69.405 41.753 0
      vertex 59.5 40 0
    endloop
  endfacet
  facet normal 0 0 -1
    outer loop
      vertex 69.405 41.753 0
      vertex 69.595 41.753 0
      vertex 59.5 40 0
    endloop
  endfacet
  facet normal 0 0 -1
    outer loop
      vertex 59.5 40 0
      vertex 69.595 41.753 0
      vertex 190.5 40 0
    endloop
  endfacet
  facet normal 0 0 -1
    outer loop
      vertex 69.595 41.753 0
      vertex 69.783 41.773 0
      vertex 190.5 40 0
    endloop
  endfacet
  facet normal 0 0 -1
    outer loop
      vertex 190.5 40 0
      vertex 69.783 41.773 0
      vertex 69.968 41.814 0
    endloop
  endfacet
  facet normal 0 0 -1
    outer loop
      vertex 69.595 45.247 0
      vertex 69.405 45.247 0
      vertex 59.5 170 0
    endloop
  endfacet
  facet normal 0 0 -1
    outer loop
      vertex 69.405 45.247 0
      vertex 69.217 45.227 0
      vertex 59.5 170 0
    endloop
  endfacet
  facet normal 0 0 -1
    outer loop
      vertex 59.5 170 0
      vertex 69.217 45.227 0
      vertex 69.032 45.186 0
    endloop
  endfacet
  facet normal 0 1 0
    outer loop
      vertex 70.5 170 1
      vertex 190.5 170 1
      vertex 70.5 170 0
    endloop
  endfacet
  facet normal 0 1 0
    outer loop
      vertex 190.5 170 1
      vertex 190.5 170 0
      vertex 70.5 170 0
    endloop
  endfacet
  facet normal -1 0 0
    outer loop
      vertex 59.5 40 0
      vertex 59.5 40 1
      vertex 59.5 170 0
    endloop
  endfacet
  facet normal -1 0 0
    outer loop
      vertex 59.5 40 1
      vertex 59.5 170 1
      vertex 59.5 170 0
    endloop
  endfacet
  facet normal 0 1 0
    outer loop
      vertex 59.5 170 0
      vertex 59.5 170 1
      vertex 65.5 170 0
    endloop
  endfacet
  facet normal 0 1 0
    outer loop
      vertex 59.5 170 1
      vertex 63.5 170 1
      vertex 65.5 170 0
    endloop
  endfacet
  facet normal 0 1 0
    outer loop
      vertex 65.5 170 0
      vertex 63.5 170 1
      vertex 65.5 170 1
    endloop
  endfacet
  facet normal 0 0 1
    outer loop
      vertex 65.5 155 1
      vertex 65.5 170 1
      vertex 63.5 170 1
    endloop
  endfacet
  facet normal 0 0 1
    outer loop
      vertex 70.482 44.948 1
      vertex 70.633 44.834 1
      vertex 190.5 170 1
    endloop
  endfacet
  facet normal 0 0 1
    outer loop
      vertex 69.405 41.753 1
      vertex 69.217 41.773 1
      vertex 63.5 40 1
    endloop
  endfacet
  facet normal 0 0 1
    outer loop
      vertex 70.5 155 1
      vertex 68.107 44.559 1
      vertex 68.229 44.703 1
    endloop
  endfacet
  facet normal 0 0 1
    outer loop
      vertex 70.893 44.559 1
      vertex 70.999 44.402 1
      vertex 190.5 40 1
    endloop
  endfacet
  facet normal 0 0 1
    outer loop
      vertex 70.5 155 1
      vertex 67.791 43.876 1
      vertex 67.842 44.059 1
    endloop
  endfacet
  facet normal 0 0 1
    outer loop
      vertex 190.5 170 1
      vertex 70.5 170 1
      vertex 70.5 155 1
    endloop
  endfacet
  facet normal 0 0 1
    outer loop
      vertex 71.209 43.876 1
      vertex 71.24 43.689 1
      vertex 190.5 40 1
    endloop
  endfacet
  facet normal 0 0 1
    outer loop
      vertex 70.999 42.598 1
      vertex 70.893 42.441 1
      vertex 190.5 40 1
    endloop
  endfacet
  facet normal 0 0 1
    outer loop
      vertex 70.893 42.441 1
      vertex 70.77 42.296 1
      vertex 190.5 40 1
    endloop
  endfacet
  facet normal 0 0 1
    outer loop
      vertex 190.5 40 1
      vertex 70.77 42.296 1
      vertex 70.633 42.166 1
    endloop
  endfacet
  facet normal 0 0 1
    outer loop
      vertex 67.842 44.059 1
      vertex 67.912 44.235 1
      vertex 70.5 155 1
    endloop
  endfacet
  facet normal 0 0 1
    outer loop
      vertex 67.912 44.235 1
      vertex 68 44.402 1
      vertex 70.5 155 1
    endloop
  endfacet
  facet normal 0 0 1
    outer loop
      vertex 70.5 155 1
      vertex 68 44.402 1
      vertex 68.107 44.559 1
    endloop
  endfacet
  facet normal 0 0 1
    outer loop
      vertex 190.5 170 1
      vertex 70.633 44.834 1
      vertex 190.5 40 1
    endloop
  endfacet
  facet normal 0 0 1
    outer loop
      vertex 70.633 44.834 1
      vertex 70.77 44.703 1
      vertex 190.5 40 1
    endloop
  endfacet
  facet normal 0 0 1
    outer loop
      vertex 190.5 40 1
      vertex 70.77 44.703 1
      vertex 70.893 44.559 1
    endloop
  endfacet
  facet normal 0 0 1
    outer loop
      vertex 70.633 42.166 1
      vertex 70.482 42.052 1
      vertex 190.5 40 1
    endloop
  endfacet
  facet normal 0 0 1
    outer loop
      vertex 70.482 42.052 1
      vertex 70.32 41.954 1
      vertex 190.5 40 1
    endloop
  endfacet
  facet normal 0 0 1
    outer loop
      vertex 190.5 40 1
      vertex 70.32 41.954 1
      vertex 70.148 41.874 1
    endloop
  endfacet
  facet normal 0 0 1
    outer loop
      vertex 68.68 41.954 1
      vertex 68.518 42.052 1
      vertex 63.5 40 1
    endloop
  endfacet
  facet normal 0 0 1
    outer loop
      vertex 68.518 42.052 1
      vertex 68.367 42.166 1
      vertex 63.5 40 1
    endloop
  endfacet
  facet normal 0 0 1
    outer loop
      vertex 63.5 40 1
      vertex 68.367 42.166 1
      vertex 68.229 42.296 1
    endloop
  endfacet
  facet normal 0 0 1
    outer loop
      vertex 68.229 44.703 1
      vertex 68.367 44.834 1
      vertex 70.5 155 1
    endloop
  endfacet
  facet normal 0 0 1
    outer loop
      vertex 68.367 44.834 1
      vertex 68.518 44.948 1
      vertex 70.5 155 1
    endloop
  endfacet
  facet normal 0 0 1
    outer loop
      vertex 70.5 155 1
      vertex 68.518 44.948 1
      vertex 190.5 170 1
    endloop
  endfacet
  facet normal 0 0 1
    outer loop
      vertex 68.518 44.948 1
      vertex 68.68 45.046 1
      vertex 190.5 170 1
    endloop
  endfacet
  facet normal 0 0 1
    outer loop
      vertex 190.5 170 1
      vertex 68.68 45.046 1
      vertex 68.852 45.126 1
    endloop
  endfacet
  facet normal 0 0 1
    outer loop
      vertex 69.968 45.186 1
      vertex 70.148 45.126 1
      vertex 190.5 170 1
    endloop
  endfacet
  facet normal 0 0 1
    outer loop
      vertex 70.148 45.126 1
      vertex 70.32 45.046 1
      vertex 190.5 170 1
    endloop
  endfacet
  facet normal 0 0 1
    outer loop
      vertex 190.5 170 1
      vertex 70.32 45.046 1
      vertex 70.482 44.948 1
    endloop
  endfacet
  facet normal 0 0 1
    outer loop
      vertex 70.999 44.402 1
      vertex 71.088 44.235 1
      vertex 190.5 40 1
    endloop
  endfacet
  facet normal 0 0 1
    outer loop
      vertex 71.088 44.235 1
      vertex 71.158 44.059 1
      vertex 190.5 40 1
    endloop
  endfacet
  facet normal 0 0 1
    outer loop
      vertex 190.5 40 1
      vertex 71.158 44.059 1
      vertex 71.209 43.876 1
    endloop
  endfacet
  facet normal 0 0 1
    outer loop
      vertex 71.24 43.689 1
      vertex 71.25 43.5 1
      vertex 190.5 40 1
    endloop
  endfacet
  facet normal 0 0 1
    outer loop
      vertex 71.25 43.5 1
      vertex 71.24 43.311 1
      vertex 190.5 40 1
    endloop
  endfacet
  facet normal 0 0 1
    outer loop
      vertex 190.5 40 1
      vertex 71.24 43.311 1
      vertex 71.209 43.124 1
    endloop
  endfacet
  facet normal 0 0 1
    outer loop
      vertex 70.148 41.874 1
      vertex 69.968 41.814 1
      vertex 190.5 40 1
    endloop
  endfacet
  facet normal 0 0 1
    outer loop
      vertex 69.968 41.814 1
      vertex 69.783 41.773 1
      vertex 190.5 40 1
    endloop
  endfacet
  facet normal 0 0 1
    outer loop
      vertex 190.5 40 1
      vertex 69.783 41.773 1
      vertex 63.5 40 1
    endloop
  endfacet
  facet normal 0 0 1
    outer loop
      vertex 69.783 41.773 1
      vertex 69.595 41.753 1
      vertex 63.5 40 1
    endloop
  endfacet
  facet normal 0 0 1
    outer loop
      vertex 63.5 40 1
      vertex 69.595 41.753 1
      vertex 69.405 41.753 1
    endloop
  endfacet
  facet normal 0 0 1
    outer loop
      vertex 68.229 42.296 1
      vertex 68.107 42.441 1
      vertex 63.5 40 1
    endloop
  endfacet
  facet normal 0 0 1
    outer loop
      vertex 68.107 42.441 1
      vertex 68 42.598 1
      vertex 63.5 40 1
    endloop
  endfacet
  facet normal 0 0 1
    outer loop
      vertex 63.5 40 1
      vertex 68 42.598 1
      vertex 67.912 42.765 1
    endloop
  endfacet
  facet normal 0 0 1
    outer loop
      vertex 71.209 43.124 1
      vertex 71.158 42.941 1
      vertex 190.5 40 1
    endloop
  endfacet
  facet normal 0 0 1
    outer loop
      vertex 71.158 42.941 1
      vertex 71.088 42.765 1
      vertex 190.5 40 1
    endloop
  endfacet
  facet normal 0 0 1
    outer loop
      vertex 190.5 40 1
      vertex 71.088 42.765 1
      vertex 70.999 42.598 1
    endloop
  endfacet
  facet normal 0 0 1
    outer loop
      vertex 69.217 41.773 1
      vertex 69.032 41.814 1
      vertex 63.5 40 1
    endloop
  endfacet
  facet normal 0 0 1
    outer loop
      vertex 69.032 41.814 1
      vertex 68.852 41.874 1
      vertex 63.5 40 1
    endloop
  endfacet
  facet normal 0 0 1
    outer loop
      vertex 63.5 40 1
      vertex 68.852 41.874 1
      vertex 68.68 41.954 1
    endloop
  endfacet
  facet normal 0 0 1
    outer loop
      vertex 63.5 40 1
      vertex 67.76 43.311 1
      vertex 67.75 43.5 1
    endloop
  endfacet
  facet normal 0 0 1
    outer loop
      vertex 67.912 42.765 1
      vertex 67.842 42.941 1
      vertex 63.5 40 1
    endloop
  endfacet
  facet normal 0 0 1
    outer loop
      vertex 67.842 42.941 1
      vertex 67.791 43.124 1
      vertex 63.5 40 1
    endloop
  endfacet
  facet normal 0 0 1
    outer loop
      vertex 63.5 40 1
      vertex 67.791 43.124 1
      vertex 67.76 43.311 1
    endloop
  endfacet
  facet normal 0 0 1
    outer loop
      vertex 63.5 170 1
      vertex 63.5 40 1
      vertex 65.5 155 1
    endloop
  endfacet
  facet normal 0 0 1
    outer loop
      vertex 63.5 40 1
      vertex 67.75 43.5 1
      vertex 65.5 155 1
    endloop
  endfacet
  facet normal 0 0 1
    outer loop
      vertex 65.5 155 1
      vertex 67.75 43.5 1
      vertex 70.5 155 1
    endloop
  endfacet
  facet normal 0 0 1
    outer loop
      vertex 67.75 43.5 1
      vertex 67.76 43.689 1
      vertex 70.5 155 1
    endloop
  endfacet
  facet normal 0 0 1
    outer loop
      vertex 70.5 155 1
      vertex 67.76 43.689 1
      vertex 67.791 43.876 1
    endloop
  endfacet
  facet normal 0 0 1
    outer loop
      vertex 68.852 45.126 1
      vertex 69.032 45.186 1
      vertex 190.5 170 1
    endloop
  endfacet
  facet normal 0 0 1
    outer loop
      vertex 69.032 45.186 1
      vertex 69.217 45.227 1
      vertex 190.5 170 1
    endloop
  endfacet
  facet normal 0 0 1
    outer loop
      vertex 190.5 170 1
      vertex 69.217 45.227 1
      vertex 69.405 45.247 1
    endloop
  endfacet
  facet normal 0 0 1
    outer loop
      vertex 69.405 45.247 1
      vertex 69.595 45.247 1
      vertex 190.5 170 1
    endloop
  endfacet
  facet normal 0 0 1
    outer loop
      vertex 69.595 45.247 1
      vertex 69.783 45.227 1
      vertex 190.5 170 1
    endloop
  endfacet
  facet normal 0 0 1
    outer loop
      vertex 190.5 170 1
      vertex 69.783 45.227 1
      vertex 69.968 45.186 1
    endloop
  endfacet
  facet normal 1 0 0
    outer loop
      vertex 190.5 40 1
      vertex 190.5 40 0
      vertex 190.5 170 1
    endloop
  endfacet
  facet normal 1 0 0
    outer loop
      vertex 190.5 40 0
      vertex 190.5 170 0
      vertex 190.5 170 1
    endloop
  endfacet
endsolid all in one ender 3 case - left lid.stl
